<mxfile host="app.diagrams.net" modified="2024-07-10T03:14:35.131Z" agent="Mozilla/5.0 (X11; Ubuntu; Linux x86_64; rv:128.0) Gecko/20100101 Firefox/128.0" etag="pW-bMaCrYE8Yqvpu0mTL" version="21.7.2" type="device">
  <diagram name="Page-1" id="LpxAA06GjzINV6ceFcD4">
    <mxGraphModel dx="1195" dy="1063" grid="1" gridSize="10" guides="1" tooltips="1" connect="1" arrows="1" fold="1" page="0" pageScale="1" pageWidth="850" pageHeight="1100" math="0" shadow="0">
      <root>
        <mxCell id="0" />
        <mxCell id="1" parent="0" />
        <mxCell id="IqNKZhYB670FaZjQa_44-1" value="Rotary Dialer" style="rounded=1;whiteSpace=wrap;html=1;verticalAlign=top;fontSize=11;fillColor=#E3E3E3;" parent="1" vertex="1">
          <mxGeometry x="130" y="-60" width="130" height="250" as="geometry" />
        </mxCell>
        <mxCell id="IqNKZhYB670FaZjQa_44-3" value="Short when off rest" style="rounded=1;whiteSpace=wrap;html=1;fontSize=11;" parent="1" vertex="1">
          <mxGeometry x="170" y="40" width="70" height="60" as="geometry" />
        </mxCell>
        <mxCell id="IqNKZhYB670FaZjQa_44-4" value="Up transitions count the digit dailed" style="rounded=1;whiteSpace=wrap;html=1;fontSize=11;labelPadding=0;noLabel=0;" parent="1" vertex="1">
          <mxGeometry x="170" y="110" width="70" height="60" as="geometry" />
        </mxCell>
        <mxCell id="IqNKZhYB670FaZjQa_44-6" style="edgeStyle=orthogonalEdgeStyle;rounded=0;orthogonalLoop=1;jettySize=auto;html=1;exitX=0;exitY=0.5;exitDx=0;exitDy=0;entryX=0;entryY=0.5;entryDx=0;entryDy=0;endArrow=none;endFill=0;fontSize=11;" parent="1" source="IqNKZhYB670FaZjQa_44-5" target="IqNKZhYB670FaZjQa_44-4" edge="1">
          <mxGeometry relative="1" as="geometry" />
        </mxCell>
        <mxCell id="IqNKZhYB670FaZjQa_44-8" style="edgeStyle=orthogonalEdgeStyle;shape=connector;rounded=0;orthogonalLoop=1;jettySize=auto;html=1;exitX=0;exitY=0.5;exitDx=0;exitDy=0;entryX=0;entryY=0.5;entryDx=0;entryDy=0;labelBackgroundColor=default;strokeColor=default;fontFamily=Helvetica;fontSize=11;fontColor=default;endArrow=none;endFill=0;" parent="1" source="IqNKZhYB670FaZjQa_44-5" target="IqNKZhYB670FaZjQa_44-3" edge="1">
          <mxGeometry relative="1" as="geometry" />
        </mxCell>
        <mxCell id="IqNKZhYB670FaZjQa_44-54" style="edgeStyle=orthogonalEdgeStyle;shape=connector;rounded=0;orthogonalLoop=1;jettySize=auto;html=1;exitX=1;exitY=0.5;exitDx=0;exitDy=0;entryX=0.5;entryY=0;entryDx=0;entryDy=0;entryPerimeter=0;labelBackgroundColor=default;strokeColor=default;fontFamily=Helvetica;fontSize=11;fontColor=default;endArrow=none;endFill=0;" parent="1" source="IqNKZhYB670FaZjQa_44-5" target="IqNKZhYB670FaZjQa_44-53" edge="1">
          <mxGeometry relative="1" as="geometry" />
        </mxCell>
        <mxCell id="IqNKZhYB670FaZjQa_44-5" value="Common" style="rounded=1;whiteSpace=wrap;html=1;fontSize=11;" parent="1" vertex="1">
          <mxGeometry x="170" y="-30" width="70" height="60" as="geometry" />
        </mxCell>
        <mxCell id="IqNKZhYB670FaZjQa_44-9" value="Hook Switch" style="rounded=1;whiteSpace=wrap;html=1;verticalAlign=top;fontSize=11;fillColor=#E3E3E3;" parent="1" vertex="1">
          <mxGeometry x="360" y="-70" width="90" height="180" as="geometry" />
        </mxCell>
        <mxCell id="IqNKZhYB670FaZjQa_44-55" style="edgeStyle=orthogonalEdgeStyle;shape=connector;rounded=0;orthogonalLoop=1;jettySize=auto;html=1;exitX=0;exitY=0.5;exitDx=0;exitDy=0;entryX=0.5;entryY=0;entryDx=0;entryDy=0;entryPerimeter=0;labelBackgroundColor=default;strokeColor=default;fontFamily=Helvetica;fontSize=11;fontColor=default;endArrow=none;endFill=0;" parent="1" source="IqNKZhYB670FaZjQa_44-10" target="IqNKZhYB670FaZjQa_44-53" edge="1">
          <mxGeometry relative="1" as="geometry">
            <Array as="points">
              <mxPoint x="370" />
              <mxPoint x="318" />
            </Array>
          </mxGeometry>
        </mxCell>
        <mxCell id="IqNKZhYB670FaZjQa_44-10" value="Short when on-hook" style="rounded=1;whiteSpace=wrap;html=1;fontSize=11;" parent="1" vertex="1">
          <mxGeometry x="370" y="-35" width="70" height="60" as="geometry" />
        </mxCell>
        <mxCell id="IqNKZhYB670FaZjQa_44-11" value="Short when on-hook" style="rounded=1;whiteSpace=wrap;html=1;fontSize=11;" parent="1" vertex="1">
          <mxGeometry x="370" y="35" width="70" height="60" as="geometry" />
        </mxCell>
        <mxCell id="IqNKZhYB670FaZjQa_44-20" value="&lt;div style=&quot;font-size: 11px;&quot;&gt;Handset&lt;/div&gt;" style="rounded=1;whiteSpace=wrap;html=1;verticalAlign=top;fontSize=11;fillColor=#E3E3E3;" parent="1" vertex="1">
          <mxGeometry x="140" y="210" width="120" height="250" as="geometry" />
        </mxCell>
        <mxCell id="IqNKZhYB670FaZjQa_44-21" value="Speaker" style="rounded=1;whiteSpace=wrap;html=1;fontSize=11;" parent="1" vertex="1">
          <mxGeometry x="180" y="250" width="60" height="60" as="geometry" />
        </mxCell>
        <mxCell id="IqNKZhYB670FaZjQa_44-22" value="Mic" style="rounded=1;whiteSpace=wrap;html=1;fontSize=11;" parent="1" vertex="1">
          <mxGeometry x="180" y="320" width="60" height="60" as="geometry" />
        </mxCell>
        <mxCell id="IqNKZhYB670FaZjQa_44-23" style="edgeStyle=orthogonalEdgeStyle;rounded=0;orthogonalLoop=1;jettySize=auto;html=1;exitX=0;exitY=0.5;exitDx=0;exitDy=0;entryX=0;entryY=0.5;entryDx=0;entryDy=0;endArrow=none;endFill=0;fontSize=11;" parent="1" source="IqNKZhYB670FaZjQa_44-25" target="IqNKZhYB670FaZjQa_44-22" edge="1">
          <mxGeometry relative="1" as="geometry" />
        </mxCell>
        <mxCell id="IqNKZhYB670FaZjQa_44-24" style="edgeStyle=orthogonalEdgeStyle;shape=connector;rounded=0;orthogonalLoop=1;jettySize=auto;html=1;exitX=0;exitY=0.5;exitDx=0;exitDy=0;entryX=0;entryY=0.5;entryDx=0;entryDy=0;labelBackgroundColor=default;strokeColor=default;fontFamily=Helvetica;fontSize=11;fontColor=default;endArrow=none;endFill=0;" parent="1" source="IqNKZhYB670FaZjQa_44-25" target="IqNKZhYB670FaZjQa_44-21" edge="1">
          <mxGeometry relative="1" as="geometry" />
        </mxCell>
        <mxCell id="IqNKZhYB670FaZjQa_44-25" value="Common" style="rounded=1;whiteSpace=wrap;html=1;fontSize=11;" parent="1" vertex="1">
          <mxGeometry x="180" y="390" width="60" height="60" as="geometry" />
        </mxCell>
        <mxCell id="IqNKZhYB670FaZjQa_44-36" style="edgeStyle=orthogonalEdgeStyle;shape=connector;rounded=0;orthogonalLoop=1;jettySize=auto;html=1;exitX=0.5;exitY=1;exitDx=0;exitDy=0;entryX=0.5;entryY=0;entryDx=0;entryDy=0;entryPerimeter=0;labelBackgroundColor=default;strokeColor=default;fontFamily=Helvetica;fontSize=11;fontColor=default;endArrow=none;endFill=0;" parent="1" source="IqNKZhYB670FaZjQa_44-26" target="IqNKZhYB670FaZjQa_44-34" edge="1">
          <mxGeometry relative="1" as="geometry" />
        </mxCell>
        <mxCell id="abWrlCWNww0wqebVpuVQ-2" style="edgeStyle=orthogonalEdgeStyle;rounded=0;orthogonalLoop=1;jettySize=auto;html=1;exitX=0;exitY=0.5;exitDx=0;exitDy=0;entryX=1.003;entryY=0.286;entryDx=0;entryDy=0;entryPerimeter=0;endArrow=classic;endFill=1;" edge="1" parent="1" source="IqNKZhYB670FaZjQa_44-26" target="IqNKZhYB670FaZjQa_44-29">
          <mxGeometry relative="1" as="geometry" />
        </mxCell>
        <mxCell id="abWrlCWNww0wqebVpuVQ-9" value="uart tx (pin 9)" style="edgeLabel;html=1;align=center;verticalAlign=middle;resizable=0;points=[];labelBackgroundColor=none;" vertex="1" connectable="0" parent="abWrlCWNww0wqebVpuVQ-2">
          <mxGeometry x="0.3251" y="2" relative="1" as="geometry">
            <mxPoint x="10" y="-12" as="offset" />
          </mxGeometry>
        </mxCell>
        <mxCell id="abWrlCWNww0wqebVpuVQ-3" style="edgeStyle=orthogonalEdgeStyle;rounded=0;orthogonalLoop=1;jettySize=auto;html=1;exitX=-0.002;exitY=0.61;exitDx=0;exitDy=0;entryX=1.003;entryY=0.647;entryDx=0;entryDy=0;entryPerimeter=0;endArrow=none;endFill=0;startArrow=classic;startFill=1;exitPerimeter=0;" edge="1" parent="1" source="IqNKZhYB670FaZjQa_44-26">
          <mxGeometry relative="1" as="geometry">
            <mxPoint x="540" y="310" as="sourcePoint" />
            <mxPoint x="460.3600000000001" y="310.1399999999999" as="targetPoint" />
            <Array as="points">
              <mxPoint x="460" y="304" />
            </Array>
          </mxGeometry>
        </mxCell>
        <mxCell id="abWrlCWNww0wqebVpuVQ-10" value="uart rx (pin 8)" style="edgeLabel;html=1;align=center;verticalAlign=middle;resizable=0;points=[];" vertex="1" connectable="0" parent="abWrlCWNww0wqebVpuVQ-3">
          <mxGeometry x="0.0496" relative="1" as="geometry">
            <mxPoint y="-9" as="offset" />
          </mxGeometry>
        </mxCell>
        <mxCell id="abWrlCWNww0wqebVpuVQ-19" style="edgeStyle=orthogonalEdgeStyle;shape=connector;rounded=0;orthogonalLoop=1;jettySize=auto;html=1;exitX=0;exitY=0.75;exitDx=0;exitDy=0;labelBackgroundColor=default;strokeColor=default;fontFamily=Helvetica;fontSize=11;fontColor=default;endArrow=classic;endFill=1;entryX=0.994;entryY=0.605;entryDx=0;entryDy=0;entryPerimeter=0;" edge="1" parent="1" source="IqNKZhYB670FaZjQa_44-26" target="IqNKZhYB670FaZjQa_44-29">
          <mxGeometry relative="1" as="geometry">
            <mxPoint x="462" y="330" as="targetPoint" />
            <Array as="points">
              <mxPoint x="540" y="323" />
              <mxPoint x="459" y="323" />
            </Array>
          </mxGeometry>
        </mxCell>
        <mxCell id="abWrlCWNww0wqebVpuVQ-20" value="reset (pin 7)" style="edgeLabel;html=1;align=center;verticalAlign=middle;resizable=0;points=[];fontSize=11;fontFamily=Helvetica;fontColor=default;" vertex="1" connectable="0" parent="abWrlCWNww0wqebVpuVQ-19">
          <mxGeometry x="0.3514" relative="1" as="geometry">
            <mxPoint x="13" y="-8" as="offset" />
          </mxGeometry>
        </mxCell>
        <mxCell id="abWrlCWNww0wqebVpuVQ-21" style="edgeStyle=orthogonalEdgeStyle;shape=connector;rounded=0;orthogonalLoop=1;jettySize=auto;html=1;exitX=-0.013;exitY=0.856;exitDx=0;exitDy=0;entryX=1.01;entryY=0.793;entryDx=0;entryDy=0;entryPerimeter=0;labelBackgroundColor=default;strokeColor=default;fontFamily=Helvetica;fontSize=11;fontColor=default;endArrow=none;endFill=0;exitPerimeter=0;startArrow=classic;startFill=1;" edge="1" parent="1" source="IqNKZhYB670FaZjQa_44-26" target="IqNKZhYB670FaZjQa_44-29">
          <mxGeometry relative="1" as="geometry" />
        </mxCell>
        <mxCell id="abWrlCWNww0wqebVpuVQ-22" value="activity (pin 4)" style="edgeLabel;html=1;align=center;verticalAlign=middle;resizable=0;points=[];fontSize=11;fontFamily=Helvetica;fontColor=default;labelBackgroundColor=none;" vertex="1" connectable="0" parent="abWrlCWNww0wqebVpuVQ-21">
          <mxGeometry x="0.113" relative="1" as="geometry">
            <mxPoint x="3" y="-8" as="offset" />
          </mxGeometry>
        </mxCell>
        <mxCell id="IqNKZhYB670FaZjQa_44-26" value="Arduino" style="rounded=1;whiteSpace=wrap;html=1;fontFamily=Helvetica;fontSize=11;fontColor=default;" parent="1" vertex="1">
          <mxGeometry x="540" y="200" width="70" height="170" as="geometry" />
        </mxCell>
        <mxCell id="IqNKZhYB670FaZjQa_44-45" style="edgeStyle=orthogonalEdgeStyle;shape=connector;rounded=0;orthogonalLoop=1;jettySize=auto;html=1;exitX=0;exitY=0.25;exitDx=0;exitDy=0;entryX=1;entryY=0.5;entryDx=0;entryDy=0;labelBackgroundColor=default;strokeColor=default;fontFamily=Helvetica;fontSize=11;fontColor=default;endArrow=none;endFill=0;" parent="1" source="IqNKZhYB670FaZjQa_44-29" target="IqNKZhYB670FaZjQa_44-21" edge="1">
          <mxGeometry relative="1" as="geometry" />
        </mxCell>
        <mxCell id="IqNKZhYB670FaZjQa_44-47" value="+" style="edgeLabel;html=1;align=center;verticalAlign=middle;resizable=0;points=[];fontSize=23;fontFamily=Helvetica;fontColor=default;labelBackgroundColor=none;" parent="IqNKZhYB670FaZjQa_44-45" vertex="1" connectable="0">
          <mxGeometry x="-0.2" y="-2" relative="1" as="geometry">
            <mxPoint x="22" y="-10" as="offset" />
          </mxGeometry>
        </mxCell>
        <mxCell id="IqNKZhYB670FaZjQa_44-46" style="edgeStyle=orthogonalEdgeStyle;shape=connector;rounded=0;orthogonalLoop=1;jettySize=auto;html=1;exitX=0;exitY=0.75;exitDx=0;exitDy=0;entryX=1;entryY=0.5;entryDx=0;entryDy=0;labelBackgroundColor=default;strokeColor=default;fontFamily=Helvetica;fontSize=11;fontColor=default;endArrow=none;endFill=0;" parent="1" source="IqNKZhYB670FaZjQa_44-29" target="IqNKZhYB670FaZjQa_44-25" edge="1">
          <mxGeometry relative="1" as="geometry" />
        </mxCell>
        <mxCell id="IqNKZhYB670FaZjQa_44-48" value="-" style="edgeLabel;html=1;align=center;verticalAlign=middle;resizable=0;points=[];fontSize=33;fontFamily=Helvetica;fontColor=default;labelBackgroundColor=none;" parent="IqNKZhYB670FaZjQa_44-46" vertex="1" connectable="0">
          <mxGeometry x="-0.6047" y="-2" relative="1" as="geometry">
            <mxPoint x="16" y="-8" as="offset" />
          </mxGeometry>
        </mxCell>
        <mxCell id="IqNKZhYB670FaZjQa_44-29" value="Sound Player" style="rounded=1;whiteSpace=wrap;html=1;fontFamily=Helvetica;fontSize=11;fontColor=default;" parent="1" vertex="1">
          <mxGeometry x="340" y="250" width="120" height="120" as="geometry" />
        </mxCell>
        <mxCell id="IqNKZhYB670FaZjQa_44-32" style="edgeStyle=orthogonalEdgeStyle;shape=connector;rounded=0;orthogonalLoop=1;jettySize=auto;html=1;exitX=0;exitY=0.25;exitDx=0;exitDy=0;entryX=1;entryY=0.25;entryDx=0;entryDy=0;labelBackgroundColor=default;strokeColor=default;fontFamily=Helvetica;fontSize=11;fontColor=default;endArrow=none;endFill=0;" parent="1" source="IqNKZhYB670FaZjQa_44-30" target="IqNKZhYB670FaZjQa_44-31" edge="1">
          <mxGeometry relative="1" as="geometry" />
        </mxCell>
        <mxCell id="abWrlCWNww0wqebVpuVQ-30" value="70V AC&lt;br&gt;20hz" style="edgeLabel;html=1;align=center;verticalAlign=middle;resizable=0;points=[];fontSize=11;fontFamily=Helvetica;fontColor=default;" vertex="1" connectable="0" parent="IqNKZhYB670FaZjQa_44-32">
          <mxGeometry x="0.3889" y="-2" relative="1" as="geometry">
            <mxPoint x="12" y="-13" as="offset" />
          </mxGeometry>
        </mxCell>
        <mxCell id="IqNKZhYB670FaZjQa_44-30" value="Ringer" style="rounded=1;whiteSpace=wrap;html=1;fontFamily=Helvetica;fontSize=11;fontColor=default;fillColor=#E3E3E3;" parent="1" vertex="1">
          <mxGeometry x="880" y="300" width="80" height="60" as="geometry" />
        </mxCell>
        <mxCell id="IqNKZhYB670FaZjQa_44-33" style="edgeStyle=orthogonalEdgeStyle;shape=connector;rounded=0;orthogonalLoop=1;jettySize=auto;html=1;exitX=1;exitY=0.75;exitDx=0;exitDy=0;entryX=0;entryY=0.75;entryDx=0;entryDy=0;labelBackgroundColor=default;strokeColor=default;fontFamily=Helvetica;fontSize=11;fontColor=default;endArrow=none;endFill=0;" parent="1" source="IqNKZhYB670FaZjQa_44-31" target="IqNKZhYB670FaZjQa_44-30" edge="1">
          <mxGeometry relative="1" as="geometry" />
        </mxCell>
        <mxCell id="IqNKZhYB670FaZjQa_44-37" style="edgeStyle=orthogonalEdgeStyle;shape=connector;rounded=0;orthogonalLoop=1;jettySize=auto;html=1;exitX=0.5;exitY=1;exitDx=0;exitDy=0;entryX=0.5;entryY=0;entryDx=0;entryDy=0;entryPerimeter=0;labelBackgroundColor=default;strokeColor=default;fontFamily=Helvetica;fontSize=11;fontColor=default;endArrow=none;endFill=0;" parent="1" source="IqNKZhYB670FaZjQa_44-31" target="IqNKZhYB670FaZjQa_44-34" edge="1">
          <mxGeometry relative="1" as="geometry">
            <Array as="points">
              <mxPoint x="780" y="390" />
              <mxPoint x="400" y="390" />
            </Array>
          </mxGeometry>
        </mxCell>
        <mxCell id="IqNKZhYB670FaZjQa_44-31" value="Ringer Generator" style="rounded=1;whiteSpace=wrap;html=1;fontFamily=Helvetica;fontSize=11;fontColor=default;" parent="1" vertex="1">
          <mxGeometry x="740" y="300" width="80" height="60" as="geometry" />
        </mxCell>
        <mxCell id="IqNKZhYB670FaZjQa_44-35" style="edgeStyle=orthogonalEdgeStyle;shape=connector;rounded=0;orthogonalLoop=1;jettySize=auto;html=1;exitX=0.5;exitY=0;exitDx=0;exitDy=0;exitPerimeter=0;entryX=0.5;entryY=1;entryDx=0;entryDy=0;labelBackgroundColor=default;strokeColor=default;fontFamily=Helvetica;fontSize=11;fontColor=default;endArrow=none;endFill=0;" parent="1" source="IqNKZhYB670FaZjQa_44-34" target="IqNKZhYB670FaZjQa_44-29" edge="1">
          <mxGeometry relative="1" as="geometry" />
        </mxCell>
        <mxCell id="IqNKZhYB670FaZjQa_44-34" value="" style="pointerEvents=1;verticalLabelPosition=bottom;shadow=0;dashed=0;align=center;html=1;verticalAlign=top;shape=mxgraph.electrical.signal_sources.signal_ground;fontFamily=Helvetica;fontSize=11;fontColor=default;" parent="1" vertex="1">
          <mxGeometry x="377.5" y="410" width="45" height="30" as="geometry" />
        </mxCell>
        <mxCell id="IqNKZhYB670FaZjQa_44-44" value="12V A23 Battery" style="rounded=1;whiteSpace=wrap;html=1;fontFamily=Helvetica;fontSize=11;fillColor=#d5e8d4;strokeColor=#82b366;" parent="1" vertex="1">
          <mxGeometry x="757.5" y="160" width="60" height="40" as="geometry" />
        </mxCell>
        <mxCell id="IqNKZhYB670FaZjQa_44-53" value="" style="pointerEvents=1;verticalLabelPosition=bottom;shadow=0;dashed=0;align=center;html=1;verticalAlign=top;shape=mxgraph.electrical.signal_sources.signal_ground;fontFamily=Helvetica;fontSize=11;fontColor=default;" parent="1" vertex="1">
          <mxGeometry x="295" y="80" width="45" height="30" as="geometry" />
        </mxCell>
        <mxCell id="abWrlCWNww0wqebVpuVQ-14" style="edgeStyle=orthogonalEdgeStyle;shape=connector;rounded=0;orthogonalLoop=1;jettySize=auto;html=1;exitX=0.5;exitY=1;exitDx=0;exitDy=0;entryX=0.483;entryY=0.014;entryDx=0;entryDy=0;entryPerimeter=0;labelBackgroundColor=default;strokeColor=default;fontFamily=Helvetica;fontSize=11;fontColor=default;endArrow=none;endFill=0;" edge="1" parent="1" source="IqNKZhYB670FaZjQa_44-56" target="IqNKZhYB670FaZjQa_44-57">
          <mxGeometry relative="1" as="geometry" />
        </mxCell>
        <mxCell id="IqNKZhYB670FaZjQa_44-56" value="LiPo battery" style="rounded=1;whiteSpace=wrap;html=1;fontFamily=Helvetica;fontSize=11;fillColor=#d5e8d4;strokeColor=#82b366;" parent="1" vertex="1">
          <mxGeometry x="625" y="-30" width="90" height="60" as="geometry" />
        </mxCell>
        <mxCell id="abWrlCWNww0wqebVpuVQ-24" style="edgeStyle=orthogonalEdgeStyle;shape=connector;rounded=0;orthogonalLoop=1;jettySize=auto;html=1;exitX=0.5;exitY=1;exitDx=0;exitDy=0;entryX=0.5;entryY=0;entryDx=0;entryDy=0;labelBackgroundColor=default;strokeColor=default;fontFamily=Helvetica;fontSize=11;fontColor=default;endArrow=none;endFill=0;" edge="1" parent="1" source="IqNKZhYB670FaZjQa_44-57" target="abWrlCWNww0wqebVpuVQ-4">
          <mxGeometry relative="1" as="geometry">
            <Array as="points">
              <mxPoint x="670" y="230" />
            </Array>
          </mxGeometry>
        </mxCell>
        <mxCell id="abWrlCWNww0wqebVpuVQ-25" style="edgeStyle=orthogonalEdgeStyle;shape=connector;rounded=0;orthogonalLoop=1;jettySize=auto;html=1;exitX=0.5;exitY=1;exitDx=0;exitDy=0;entryX=0.5;entryY=0;entryDx=0;entryDy=0;labelBackgroundColor=default;strokeColor=default;fontFamily=Helvetica;fontSize=11;fontColor=default;endArrow=none;endFill=0;" edge="1" parent="1" source="IqNKZhYB670FaZjQa_44-57" target="IqNKZhYB670FaZjQa_44-26">
          <mxGeometry relative="1" as="geometry">
            <Array as="points">
              <mxPoint x="670" y="150" />
              <mxPoint x="580" y="150" />
              <mxPoint x="580" y="200" />
            </Array>
          </mxGeometry>
        </mxCell>
        <mxCell id="abWrlCWNww0wqebVpuVQ-26" style="edgeStyle=orthogonalEdgeStyle;shape=connector;rounded=0;orthogonalLoop=1;jettySize=auto;html=1;exitX=0.5;exitY=1;exitDx=0;exitDy=0;entryX=0.75;entryY=0;entryDx=0;entryDy=0;labelBackgroundColor=default;strokeColor=default;fontFamily=Helvetica;fontSize=11;fontColor=default;endArrow=none;endFill=0;" edge="1" parent="1" source="IqNKZhYB670FaZjQa_44-57" target="IqNKZhYB670FaZjQa_44-29">
          <mxGeometry relative="1" as="geometry">
            <Array as="points">
              <mxPoint x="670" y="150" />
              <mxPoint x="430" y="150" />
            </Array>
          </mxGeometry>
        </mxCell>
        <mxCell id="abWrlCWNww0wqebVpuVQ-27" value="5V" style="edgeLabel;html=1;align=center;verticalAlign=middle;resizable=0;points=[];fontSize=11;fontFamily=Helvetica;fontColor=default;" vertex="1" connectable="0" parent="abWrlCWNww0wqebVpuVQ-26">
          <mxGeometry x="-0.1798" relative="1" as="geometry">
            <mxPoint y="-10" as="offset" />
          </mxGeometry>
        </mxCell>
        <mxCell id="IqNKZhYB670FaZjQa_44-57" value="Adafruit Boost Charger" style="rounded=1;whiteSpace=wrap;html=1;fontFamily=Helvetica;fontSize=11;" parent="1" vertex="1">
          <mxGeometry x="635" y="50" width="70" height="60" as="geometry" />
        </mxCell>
        <mxCell id="abWrlCWNww0wqebVpuVQ-7" style="edgeStyle=orthogonalEdgeStyle;rounded=0;orthogonalLoop=1;jettySize=auto;html=1;exitX=0.5;exitY=1;exitDx=0;exitDy=0;entryX=0.5;entryY=0;entryDx=0;entryDy=0;entryPerimeter=0;endArrow=none;endFill=0;" edge="1" parent="1" source="abWrlCWNww0wqebVpuVQ-4" target="IqNKZhYB670FaZjQa_44-34">
          <mxGeometry relative="1" as="geometry">
            <Array as="points">
              <mxPoint x="673" y="390" />
              <mxPoint x="400" y="390" />
            </Array>
          </mxGeometry>
        </mxCell>
        <mxCell id="abWrlCWNww0wqebVpuVQ-33" style="edgeStyle=orthogonalEdgeStyle;shape=connector;rounded=0;orthogonalLoop=1;jettySize=auto;html=1;exitX=0.75;exitY=0;exitDx=0;exitDy=0;entryX=0;entryY=0.5;entryDx=0;entryDy=0;labelBackgroundColor=default;strokeColor=default;fontFamily=Helvetica;fontSize=11;fontColor=default;endArrow=none;endFill=0;dashed=1;" edge="1" parent="1" source="abWrlCWNww0wqebVpuVQ-4" target="abWrlCWNww0wqebVpuVQ-31">
          <mxGeometry relative="1" as="geometry" />
        </mxCell>
        <mxCell id="abWrlCWNww0wqebVpuVQ-34" value="318 MHz" style="edgeLabel;html=1;align=center;verticalAlign=middle;resizable=0;points=[];fontSize=11;fontFamily=Helvetica;fontColor=default;" vertex="1" connectable="0" parent="abWrlCWNww0wqebVpuVQ-33">
          <mxGeometry x="0.2225" relative="1" as="geometry">
            <mxPoint x="23" y="-10" as="offset" />
          </mxGeometry>
        </mxCell>
        <mxCell id="abWrlCWNww0wqebVpuVQ-4" value="Garage door opener module" style="rounded=1;whiteSpace=wrap;html=1;fontFamily=Helvetica;fontSize=11;fontColor=default;verticalAlign=top;" vertex="1" parent="1">
          <mxGeometry x="625" y="230" width="95" height="120" as="geometry" />
        </mxCell>
        <mxCell id="IqNKZhYB670FaZjQa_44-39" value="Signal Relay" style="rounded=1;whiteSpace=wrap;html=1;fontFamily=Helvetica;fontSize=11;" parent="1" vertex="1">
          <mxGeometry x="645" y="270" width="55" height="60" as="geometry" />
        </mxCell>
        <mxCell id="IqNKZhYB670FaZjQa_44-38" style="edgeStyle=orthogonalEdgeStyle;shape=connector;rounded=0;orthogonalLoop=1;jettySize=auto;html=1;exitX=0;exitY=0.25;exitDx=0;exitDy=0;labelBackgroundColor=default;strokeColor=default;fontFamily=Helvetica;fontSize=11;fontColor=default;endArrow=none;endFill=0;entryX=1;entryY=0.75;entryDx=0;entryDy=0;" parent="1" source="IqNKZhYB670FaZjQa_44-31" target="IqNKZhYB670FaZjQa_44-39" edge="1">
          <mxGeometry relative="1" as="geometry">
            <mxPoint x="870" y="315" as="targetPoint" />
          </mxGeometry>
        </mxCell>
        <mxCell id="IqNKZhYB670FaZjQa_44-43" style="edgeStyle=orthogonalEdgeStyle;shape=connector;rounded=0;orthogonalLoop=1;jettySize=auto;html=1;exitX=1;exitY=0.25;exitDx=0;exitDy=0;labelBackgroundColor=default;strokeColor=default;fontFamily=Helvetica;fontSize=11;fontColor=default;endArrow=none;endFill=0;entryX=0.5;entryY=1;entryDx=0;entryDy=0;" parent="1" source="IqNKZhYB670FaZjQa_44-39" target="IqNKZhYB670FaZjQa_44-44" edge="1">
          <mxGeometry relative="1" as="geometry">
            <mxPoint x="870" y="220" as="targetPoint" />
          </mxGeometry>
        </mxCell>
        <mxCell id="abWrlCWNww0wqebVpuVQ-16" style="edgeStyle=orthogonalEdgeStyle;shape=connector;rounded=0;orthogonalLoop=1;jettySize=auto;html=1;exitX=0.5;exitY=1;exitDx=0;exitDy=0;entryX=1;entryY=0.5;entryDx=0;entryDy=0;labelBackgroundColor=default;strokeColor=default;fontFamily=Helvetica;fontSize=11;fontColor=default;endArrow=none;endFill=0;" edge="1" parent="1" source="abWrlCWNww0wqebVpuVQ-15" target="IqNKZhYB670FaZjQa_44-57">
          <mxGeometry relative="1" as="geometry" />
        </mxCell>
        <mxCell id="abWrlCWNww0wqebVpuVQ-15" value="Micro USB&lt;br&gt;(Charging)" style="rounded=1;whiteSpace=wrap;html=1;fontFamily=Helvetica;fontSize=11;fillColor=#dae8fc;strokeColor=#6c8ebf;" vertex="1" parent="1">
          <mxGeometry x="750" y="-20" width="75" height="40" as="geometry" />
        </mxCell>
        <mxCell id="abWrlCWNww0wqebVpuVQ-18" style="edgeStyle=orthogonalEdgeStyle;shape=connector;rounded=0;orthogonalLoop=1;jettySize=auto;html=1;exitX=0.5;exitY=1;exitDx=0;exitDy=0;entryX=0.25;entryY=0;entryDx=0;entryDy=0;labelBackgroundColor=default;strokeColor=default;fontFamily=Helvetica;fontSize=11;fontColor=default;endArrow=none;endFill=0;" edge="1" parent="1" source="abWrlCWNww0wqebVpuVQ-17" target="IqNKZhYB670FaZjQa_44-29">
          <mxGeometry relative="1" as="geometry">
            <Array as="points">
              <mxPoint x="378" y="230" />
              <mxPoint x="378" y="250" />
            </Array>
          </mxGeometry>
        </mxCell>
        <mxCell id="abWrlCWNww0wqebVpuVQ-17" value="Micro USB&lt;br&gt;(Sound files)" style="rounded=1;whiteSpace=wrap;html=1;fontFamily=Helvetica;fontSize=11;fillColor=#dae8fc;strokeColor=#6c8ebf;" vertex="1" parent="1">
          <mxGeometry x="340" y="170" width="75" height="40" as="geometry" />
        </mxCell>
        <mxCell id="abWrlCWNww0wqebVpuVQ-1" style="edgeStyle=orthogonalEdgeStyle;rounded=0;orthogonalLoop=1;jettySize=auto;html=1;exitX=1;exitY=0.5;exitDx=0;exitDy=0;entryX=0;entryY=0.25;entryDx=0;entryDy=0;endArrow=none;endFill=0;jumpStyle=arc;jumpSize=19;" edge="1" parent="1" source="IqNKZhYB670FaZjQa_44-10" target="IqNKZhYB670FaZjQa_44-26">
          <mxGeometry relative="1" as="geometry">
            <Array as="points">
              <mxPoint x="480" y="-5" />
              <mxPoint x="480" y="242" />
            </Array>
          </mxGeometry>
        </mxCell>
        <mxCell id="abWrlCWNww0wqebVpuVQ-23" value="pin 5" style="edgeLabel;html=1;align=center;verticalAlign=middle;resizable=0;points=[];fontSize=11;fontFamily=Helvetica;fontColor=default;" vertex="1" connectable="0" parent="abWrlCWNww0wqebVpuVQ-1">
          <mxGeometry x="0.7735" y="-2" relative="1" as="geometry">
            <mxPoint x="13" y="-10" as="offset" />
          </mxGeometry>
        </mxCell>
        <mxCell id="abWrlCWNww0wqebVpuVQ-31" value="Remote" style="rounded=1;whiteSpace=wrap;html=1;fontFamily=Helvetica;fontSize=11;fontColor=default;verticalAlign=top;" vertex="1" parent="1">
          <mxGeometry x="860" y="70" width="95" height="120" as="geometry" />
        </mxCell>
        <mxCell id="abWrlCWNww0wqebVpuVQ-32" value="12V A23 Battery" style="rounded=1;whiteSpace=wrap;html=1;fontFamily=Helvetica;fontSize=11;fillColor=#d5e8d4;strokeColor=#82b366;" vertex="1" parent="1">
          <mxGeometry x="877.5" y="120" width="60" height="40" as="geometry" />
        </mxCell>
      </root>
    </mxGraphModel>
  </diagram>
</mxfile>
